# xmcd
#
# Track frame offsets:
#	150
#	13024
#	23779
#	34591
#	46055
#	58200
#	95970
#	124280
#	138008
#	149047
#
# Disc length: 2226 seconds
#
# Revision: 1
# Processed by: cddbd v1.4PL0 Copyright (c) Steve Scherf et al.
# Submitted via: audiograbber 1.82.00
#
DISCID=8e08b00a
DTITLE=blandat - Skandia Banken - guitar and voices
DYEAR=2001
DGENRE=Blues
TTITLE0=Guitars A Quattro - The Pink Panther
TTITLE1=Göran Söllscher - Preludium
TTITLE2=Göran Söllscher - Aria
TTITLE3=Erik Möllerström - Romance in E /Romance d'amour
TTITLE4=The Real Group - God Only Knows
TTITLE5=Guitars A Quattro - Contrastes
TTITLE6=The Real Group - En gång i Stockholm
TTITLE7=The Real Group - Nygammal vals
TTITLE8=Erik Möllerström - Choro
TTITLE9=The Real Group - Sakta Vi gå genom Stan
EXTD=Julklapps CD från Skandia Banken
EXTT0=
EXTT1=
EXTT2=
EXTT3=
EXTT4=
EXTT5=
EXTT6=
EXTT7=
EXTT8=
EXTT9=
PLAYORDER=
